<?xml version="1.0" encoding="UTF-8" standalone="no"?>
<svg
   height="16"
   id="svg7384"
   version="1.1"
   width="16"
   sodipodi:docname="favicon.svg"
   inkscape:version="1.2 (1:1.2.1+202207142221+cd75a1ee6d)"
   inkscape:export-filename="icons/Icon-512.png"
   inkscape:export-xdpi="3072"
   inkscape:export-ydpi="3072"
   xmlns:inkscape="http://www.inkscape.org/namespaces/inkscape"
   xmlns:sodipodi="http://sodipodi.sourceforge.net/DTD/sodipodi-0.dtd"
   xmlns="http://www.w3.org/2000/svg"
   xmlns:svg="http://www.w3.org/2000/svg"
   xmlns:rdf="http://www.w3.org/1999/02/22-rdf-syntax-ns#"
   xmlns:cc="http://creativecommons.org/ns#"
   xmlns:dc="http://purl.org/dc/elements/1.1/">
  <sodipodi:namedview
     pagecolor="#ffffff"
     bordercolor="#666666"
     borderopacity="1"
     objecttolerance="10"
     gridtolerance="10"
     guidetolerance="10"
     inkscape:pageopacity="0"
     inkscape:pageshadow="2"
     inkscape:window-width="1846"
     inkscape:window-height="1016"
     id="namedview21"
     showgrid="true"
     inkscape:zoom="21.566754"
     inkscape:cx="20.958184"
     inkscape:cy="13.098865"
     inkscape:window-x="0"
     inkscape:window-y="0"
     inkscape:window-maximized="1"
     inkscape:current-layer="svg7384"
     inkscape:pagecheckerboard="0"
     width="24px"
     inkscape:showpageshadow="2"
     inkscape:deskcolor="#d1d1d1">
    <inkscape:grid
       type="xygrid"
       id="grid846"
       originx="0"
       originy="0" />
  </sodipodi:namedview>
  <metadata
     id="metadata20854">
    <rdf:RDF>
      <cc:Work
         rdf:about="">
        <dc:format>image/svg+xml</dc:format>
        <dc:type
           rdf:resource="http://purl.org/dc/dcmitype/StillImage" />
      </cc:Work>
    </rdf:RDF>
  </metadata>
  <defs
     id="defs7386">
    <linearGradient
       id="linearGradient5606"
       inkscape:swatch="solid">
      <stop
         id="stop5608"
         offset="0"
         style="stop-color:#000000;stop-opacity:1;" />
    </linearGradient>
    <linearGradient
       id="linearGradient4526"
       inkscape:swatch="solid">
      <stop
         id="stop4528"
         offset="0"
         style="stop-color:#ffffff;stop-opacity:1;" />
    </linearGradient>
    <linearGradient
       id="linearGradient3600-4"
       inkscape:swatch="gradient">
      <stop
         id="stop3602-7"
         offset="0"
         style="stop-color:#f4f4f4;stop-opacity:1" />
      <stop
         id="stop3604-6"
         offset="1"
         style="stop-color:#dbdbdb;stop-opacity:1" />
    </linearGradient>
  </defs>
  <rect
     style="fill:#ffffff;fill-opacity:1;stroke:none;stroke-width:10.0787;stroke-linejoin:round"
     id="rect348"
     width="14.666667"
     height="14.666667"
     x="0.66666669"
     y="0.66666669" />
  <path
     id="rect6"
     style="fill:#e95420;fill-opacity:1;stroke-width:0.8"
     class="cls-1"
     d="M 0,0 V 16 H 16 V 0 Z m 10.55,2.5656249 a 1.675,1.675 0 0 1 1.675,1.675 1.675,1.675 0 0 1 -1.675,1.675 1.675,1.675 0 0 1 -1.675,-1.675 1.675,1.675 0 0 1 1.675,-1.675 z m -2.4296873,0.175 a 5.5,5.5 0 0 1 0.5140626,0.014063 2.315,2.315 0 0 0 -0.4593753,0.975 3.21,3.21 0 0 0 -0.05,0.375 A 4.06,4.06 0 0 0 4.8343751,5.8656249 2.42,2.42 0 0 0 4.075,5.55 2.325,2.325 0 0 0 3.575,5.5 H 3.45 A 5.5,5.5 0 0 1 8.1203127,2.7406249 Z M 12.775,5.2 A 5.5,5.5 0 0 1 12.5,11.615625 2.29,2.29 0 0 0 11.7,10.375 4.04,4.04 0 0 0 12.225,9.075 4.11,4.11 0 0 0 11.834375,6.3 2.425,2.425 0 0 0 12.775,5.2 Z M 3.5906249,6.2343751 a 1.675,1.675 0 0 1 1.675,1.6750002 1.675,1.675 0 0 1 -1.675,1.675 1.675,1.675 0 0 1 -1.675,-1.675 1.675,1.675 0 0 1 1.675,-1.6750002 z m 1,3.8499999 a 4.04,4.04 0 0 0 2.7749998,2.125 1.445,1.445 0 0 0 0.4093753,0.06563 2.355,2.355 0 0 0 0.5,1.4 5.5,5.5 0 0 1 -1.1843753,-0.125 5.435,5.435 0 0 1 -3.9249998,-3.290625 2.415,2.415 0 0 0 1.425,-0.175 z M 10.175,10.55 A 1.675,1.675 0 0 1 11.85,12.225 1.675,1.675 0 0 1 10.175,13.9 1.675,1.675 0 0 1 8.5,12.225 1.675,1.675 0 0 1 10.175,10.55 Z" />
</svg>
